<?xml version="1.0" encoding="UTF-8"?>
<svg xmlns="http://www.w3.org/2000/svg" xmlns:xlink="http://www.w3.org/1999/xlink" width="24px" height="24px" viewBox="0 0 24 24" version="1.1">
  <g id="surface1">
    <path style=" stroke:none;fill-rule:nonzero;fill:rgb(100%,100%,100%);fill-opacity:1;" d="M 3.601562 0 L 20.398438 0 C 22.386719 0 24 1.613281 24 3.601562 L 24 20.398438 C 24 22.386719 22.386719 24 20.398438 24 L 3.601562 24 C 1.613281 24 0 22.386719 0 20.398438 L 0 3.601562 C 0 1.613281 1.613281 0 3.601562 0 Z M 3.601562 0 " />
    <path style=" stroke:none;fill-rule:nonzero;fill:rgb(92.156863%,32.941176%,14.117647%);fill-opacity:1;" d="M 16.785156 17.757812 L 14.980469 12.1875 L 19.710938 8.761719 L 13.859375 8.761719 L 12.050781 3.195312 L 17.902344 3.195312 L 19.710938 8.757812 C 20.761719 11.984375 19.679688 15.648438 16.785156 17.757812 Z M 7.320312 17.757812 L 12.054688 21.195312 L 16.785156 17.757812 L 12.054688 14.320312 Z M 4.398438 8.757812 C 3.292969 12.160156 4.578125 15.765625 7.324219 17.757812 L 9.128906 12.195312 L 4.402344 8.757812 L 10.246094 8.757812 L 12.054688 3.195312 L 6.207031 3.195312 Z M 4.398438 8.757812 " />
  </g>
</svg>
